<?xml version="1.0" encoding="utf-8" standalone="no"?>
<svg version="1.2" width="184.000000pt" height="184.000000pt" viewBox="0 0 184.000000 184.000000" preserveAspectRatio="xMidYMid meet" baseProfile="tiny-ps" xmlns="http://www.w3.org/2000/svg">
  <title>bimi-logo.svg</title>
  <g transform="translate(0.000000,184.000000) scale(0.100000,-0.100000)" fill="#000000" stroke="none">
    <path d="M1490 1378 c-14 -6 -38 -16 -55 -23 -16 -7 -67 -29 -113 -50 -65 -30 -81 -42 -76 -54 4 -9 18 -54 32 -101 35 -120 37 -313 3 -445 -44 -171 -129 -331 -258 -486 l-82 -98 43 -6 c44 -7 100 -3 214 15 144 24 312 114 401 217 42 49 119 189 109 199 -3 3 -30 1 -59 -4 -29 -6 -58 -8 -65 -5 -29 11 -28 89 3 208 24 93 23 386 -1 490 -23 99 -45 155 -60 154 -6 0 -22 -5 -36 -11z" />
    <path d="M511 844 c0 -11 3 -14 6 -6 3 7 2 16 -1 19 -3 4 -6 -2 -5 -13z" />
    <path d="M524 698 c1 -48 -2 -85 -6 -82 -5 3 -21 1 -36 -5 -26 -9 -87 -20 -124 -21 -10 0 -18 -5 -18 -11 0 -5 4 -7 10 -4 6 3 7 -1 4 -9 -3 -9 -1 -16 5 -16 6 0 11 -5 11 -11 0 -17 39 -66 121 -148 84 -85 97 -95 192 -157 37 -24 67 -46 67 -49 0 -6 -24 8 -125 74 -76 50 -250 216 -284 271 -27 45 -27 31 0 -21 31 -62 83 -140 138 -208 48 -60 58 -96 23 -84 -14 5 -14 3 2 -15 29 -33 147 -66 236 -65 102 1 120 2 120 10 0 3 -19 29 -43 57 -131 153 -235 355 -291 561 -3 11 -4 -19 -2 -67z" />
  </g>
</svg>